<svg width="703" height="474" viewBox="0 0 703 474" fill="none" xmlns="http://www.w3.org/2000/svg">
<path d="M12.1951 349.679L7.34331 338.291L400.735 216.371L405.587 227.759L12.1951 349.679ZM412.668 272.977L407.816 261.588L36.0609 376.921L40.9127 388.197L412.799 272.977H412.668ZM413.061 320.315L408.209 308.927L71.5973 413.318L76.4491 424.706L413.061 320.427V320.315ZM388.278 375.358L383.426 363.97L131.917 441.9L136.769 453.176L388.278 375.246V375.358ZM335.301 439.22L330.449 427.832L220.824 461.773L225.676 473.161L335.301 439.22ZM376.869 189.241L372.017 177.852L0.262261 293.185L5.11409 304.573L377 189.352L376.869 189.241ZM341.464 152.843L336.612 141.455L0 245.846L4.85183 257.234L341.464 152.843ZM281.013 124.15L276.161 112.873L24.6525 190.804L29.5044 202.192L281.013 124.15ZM82.4811 138.329L192.106 104.276L187.254 93L77.6293 126.941L82.4811 138.329Z" fill="white"/>
<path d="M604.98 62.7244L603.794 59.9415L699.927 30.1481L701.113 32.931L604.98 62.7244ZM702.843 43.9807L701.658 41.1978L610.812 69.3815L611.998 72.1371L702.875 43.9807H702.843ZM702.939 55.5488L701.754 52.7659L619.496 78.2758L620.682 81.0587L702.939 55.5761V55.5488ZM696.883 68.9995L695.697 66.2166L634.237 85.2604L635.422 88.016L696.883 68.9722V68.9995ZM683.937 84.6056L682.752 81.8227L655.963 90.1168L657.148 92.8997L683.937 84.6056ZM694.095 23.5182L692.91 20.7353L602.064 48.919L603.25 51.7019L694.127 23.5455L694.095 23.5182ZM685.443 14.6239L684.258 11.841L602 37.3509L603.186 40.1338L685.443 14.6239ZM670.671 7.61205L669.485 4.85643L608.024 23.9002L609.21 26.6831L670.671 7.61205ZM622.156 11.077L648.945 2.75562L647.759 0L620.97 8.29413L622.156 11.077Z" fill="white"/>
</svg>
